<svg width="147" height="186" viewBox="0 0 147 186" fill="none" xmlns="http://www.w3.org/2000/svg">
<mask id="path-1-inside-1_2_31" fill="white">
<path fill-rule="evenodd" clip-rule="evenodd" d="M37.5033 109.869C56.4654 109.869 71.8372 85.2738 71.8372 54.9344C71.8372 24.5949 56.4654 0 37.5033 0C18.5412 0 3.16931 24.5949 3.16931 54.9344C3.16931 85.2738 18.5412 109.869 37.5033 109.869ZM34.334 88.7401C45.7113 88.7401 54.9344 73.6047 54.9344 54.9343C54.9344 36.2639 45.7113 21.1286 34.334 21.1286C22.9568 21.1286 13.7337 36.2639 13.7337 54.9343C13.7337 73.6047 22.9568 88.7401 34.334 88.7401Z"/>
</mask>
<path fill-rule="evenodd" clip-rule="evenodd" d="M37.5033 109.869C56.4654 109.869 71.8372 85.2738 71.8372 54.9344C71.8372 24.5949 56.4654 0 37.5033 0C18.5412 0 3.16931 24.5949 3.16931 54.9344C3.16931 85.2738 18.5412 109.869 37.5033 109.869ZM34.334 88.7401C45.7113 88.7401 54.9344 73.6047 54.9344 54.9343C54.9344 36.2639 45.7113 21.1286 34.334 21.1286C22.9568 21.1286 13.7337 36.2639 13.7337 54.9343C13.7337 73.6047 22.9568 88.7401 34.334 88.7401Z" fill="#262626"/>
<path d="M69.8372 54.9344C69.8372 69.7892 66.0701 83.1428 60.0851 92.7188C54.0824 102.323 46.0459 107.869 37.5033 107.869V111.869C47.9228 111.869 57.0532 105.117 63.4771 94.8388C69.9185 84.5325 73.8372 70.4189 73.8372 54.9344H69.8372ZM37.5033 2C46.0459 2 54.0824 7.54569 60.0851 17.1499C66.0701 26.7259 69.8372 40.0795 69.8372 54.9344H73.8372C73.8372 39.4498 69.9185 25.3362 63.4771 15.0299C57.0532 4.75178 47.9228 -2 37.5033 -2V2ZM5.16931 54.9344C5.16931 40.0795 8.93648 26.7259 14.9215 17.1499C20.9241 7.54569 28.9606 2 37.5033 2V-2C27.0838 -2 17.9533 4.75178 11.5295 15.0299C5.08806 25.3362 1.16931 39.4498 1.16931 54.9344H5.16931ZM37.5033 107.869C28.9606 107.869 20.9241 102.323 14.9215 92.7188C8.93648 83.1428 5.16931 69.7892 5.16931 54.9344H1.16931C1.16931 70.4189 5.08806 84.5325 11.5295 94.8388C17.9533 105.117 27.0838 111.869 37.5033 111.869V107.869ZM52.9344 54.9343C52.9344 63.9639 50.7001 72.0424 47.1928 77.7979C43.6642 83.5885 39.0595 86.7401 34.334 86.7401V90.7401C40.9859 90.7401 46.6814 86.324 50.6086 79.8794C54.5572 73.3995 56.9344 64.5752 56.9344 54.9343H52.9344ZM34.334 23.1286C39.0595 23.1286 43.6642 26.2802 47.1928 32.0708C50.7001 37.8263 52.9344 45.9048 52.9344 54.9343H56.9344C56.9344 45.2935 54.5572 36.4691 50.6086 29.9893C46.6814 23.5446 40.9859 19.1286 34.334 19.1286V23.1286ZM15.7337 54.9343C15.7337 45.9048 17.968 37.8263 21.4753 32.0708C25.0039 26.2802 29.6086 23.1286 34.334 23.1286V19.1286C27.6822 19.1286 21.9867 23.5446 18.0595 29.9893C14.1109 36.4691 11.7337 45.2935 11.7337 54.9343H15.7337ZM34.334 86.7401C29.6086 86.7401 25.0039 83.5885 21.4753 77.7979C17.968 72.0424 15.7337 63.9639 15.7337 54.9343H11.7337C11.7337 64.5752 14.1109 73.3995 18.0595 79.8794C21.9867 86.324 27.6822 90.7401 34.334 90.7401V86.7401Z" fill="black" mask="url(#path-1-inside-1_2_31)"/>
<mask id="path-3-inside-2_2_31" fill="white">
<path fill-rule="evenodd" clip-rule="evenodd" d="M48.0675 109.869C67.0297 109.869 82.4015 85.2738 82.4015 54.9344C82.4015 24.5949 67.0297 0 48.0675 0C29.1188 0 13.7552 24.5603 13.7336 54.8703C13.7546 36.2293 22.9697 21.1286 34.3339 21.1286C45.7112 21.1286 54.9343 36.2639 54.9343 54.9343C54.9343 73.6047 45.7112 88.7401 34.3339 88.7401C22.969 88.7401 13.7535 73.6375 13.7336 54.995C13.7541 85.3065 29.118 109.869 48.0675 109.869Z"/>
</mask>
<path fill-rule="evenodd" clip-rule="evenodd" d="M48.0675 109.869C67.0297 109.869 82.4015 85.2738 82.4015 54.9344C82.4015 24.5949 67.0297 0 48.0675 0C29.1188 0 13.7552 24.5603 13.7336 54.8703C13.7546 36.2293 22.9697 21.1286 34.3339 21.1286C45.7112 21.1286 54.9343 36.2639 54.9343 54.9343C54.9343 73.6047 45.7112 88.7401 34.3339 88.7401C22.969 88.7401 13.7535 73.6375 13.7336 54.995C13.7541 85.3065 29.118 109.869 48.0675 109.869Z" fill="#888888"/>
<path d="M13.7336 54.8703L11.7336 54.8689L15.7336 54.8725L13.7336 54.8703ZM13.7336 54.995L15.7336 54.9929L11.7336 54.9964L13.7336 54.995ZM80.4015 54.9344C80.4015 69.7892 76.6343 83.1428 70.6493 92.7188C64.6467 102.323 56.6102 107.869 48.0675 107.869V111.869C58.487 111.869 67.6175 105.117 74.0413 94.8388C80.4828 84.5325 84.4015 70.4189 84.4015 54.9344H80.4015ZM48.0675 2C56.6102 2 64.6467 7.54569 70.6493 17.1499C76.6343 26.7259 80.4015 40.0795 80.4015 54.9344H84.4015C84.4015 39.4498 80.4828 25.3362 74.0413 15.0299C67.6175 4.75178 58.487 -2 48.0675 -2V2ZM15.7336 54.8717C15.7442 40.0314 19.5145 26.6936 25.4984 17.1297C31.4997 7.53783 39.5309 2 48.0675 2V-2C37.6554 -2 28.5304 4.74233 22.1074 15.0081C15.6669 25.3019 11.7446 39.3992 11.7336 54.8689L15.7336 54.8717ZM15.7336 54.8725C15.7438 45.8573 17.9811 37.7945 21.4871 32.0511C25.0144 26.2729 29.6139 23.1286 34.3339 23.1286V19.1286C27.6897 19.1286 21.9995 23.5347 18.073 29.967C14.1251 36.4342 11.7445 45.2423 11.7336 54.868L15.7336 54.8725ZM34.3339 23.1286C39.0594 23.1286 43.6641 26.2802 47.1927 32.0708C50.7 37.8263 52.9343 45.9048 52.9343 54.9343H56.9343C56.9343 45.2935 54.5571 36.4691 50.6085 29.9893C46.6813 23.5446 40.9858 19.1286 34.3339 19.1286V23.1286ZM52.9343 54.9343C52.9343 63.9639 50.7 72.0424 47.1927 77.7979C43.6641 83.5885 39.0594 86.7401 34.3339 86.7401V90.7401C40.9858 90.7401 46.6813 86.324 50.6085 79.8794C54.5571 73.3995 56.9343 64.5752 56.9343 54.9343H52.9343ZM34.3339 86.7401C29.6136 86.7401 25.0138 83.5954 21.4865 77.8165C17.9804 72.0725 15.7432 64.0088 15.7336 54.9929L11.7336 54.9972C11.7439 64.6237 14.1244 73.4326 18.0723 79.9005C21.9989 86.3335 27.6893 90.7401 34.3339 90.7401V86.7401ZM48.0675 107.869C39.5305 107.869 31.4991 102.33 25.4977 92.7379C19.5138 83.1734 15.7436 69.8348 15.7336 54.9937L11.7336 54.9964C11.744 70.4668 15.6661 84.565 22.1067 94.8595C28.5297 105.126 37.655 111.869 48.0675 111.869V107.869Z" fill="black" mask="url(#path-3-inside-2_2_31)"/>
<path fill-rule="evenodd" clip-rule="evenodd" d="M40.6725 109.869C59.6347 109.869 75.0065 85.2738 75.0065 54.9344C75.0065 24.5949 59.6347 0 40.6725 0C21.7104 0 6.33856 24.5949 6.33856 54.9344C6.33856 85.2738 21.7104 109.869 40.6725 109.869ZM34.334 88.7401C45.7112 88.7401 54.9343 73.6047 54.9343 54.9343C54.9343 36.2639 45.7112 21.1286 34.334 21.1286C22.9567 21.1286 13.7336 36.2639 13.7336 54.9343C13.7336 73.6047 22.9567 88.7401 34.334 88.7401Z" fill="#888888"/>
<path fill-rule="evenodd" clip-rule="evenodd" d="M44.8983 109.869C63.8604 109.869 79.2323 85.2738 79.2323 54.9344C79.2323 24.5949 63.8604 0 44.8983 0C25.9362 0 10.5643 24.5949 10.5643 54.9344C10.5643 85.2738 25.9362 109.869 44.8983 109.869ZM34.334 88.7401C45.7113 88.7401 54.9344 73.6047 54.9344 54.9343C54.9344 36.2639 45.7113 21.1286 34.334 21.1286C22.9568 21.1286 13.7337 36.2639 13.7337 54.9343C13.7337 73.6047 22.9568 88.7401 34.334 88.7401Z" fill="#888888"/>
<mask id="path-7-inside-3_2_31" fill="white">
<path fill-rule="evenodd" clip-rule="evenodd" d="M34.334 109.869C53.2961 109.869 68.6679 85.2738 68.6679 54.9344C68.6679 24.5949 53.2961 0 34.334 0C15.3718 0 0 24.5949 0 54.9344C0 85.2738 15.3718 109.869 34.334 109.869ZM34.334 88.7401C45.7112 88.7401 54.9343 73.6047 54.9343 54.9343C54.9343 36.2639 45.7112 21.1286 34.334 21.1286C22.9567 21.1286 13.7336 36.2639 13.7336 54.9343C13.7336 73.6047 22.9567 88.7401 34.334 88.7401Z"/>
</mask>
<path fill-rule="evenodd" clip-rule="evenodd" d="M34.334 109.869C53.2961 109.869 68.6679 85.2738 68.6679 54.9344C68.6679 24.5949 53.2961 0 34.334 0C15.3718 0 0 24.5949 0 54.9344C0 85.2738 15.3718 109.869 34.334 109.869ZM34.334 88.7401C45.7112 88.7401 54.9343 73.6047 54.9343 54.9343C54.9343 36.2639 45.7112 21.1286 34.334 21.1286C22.9567 21.1286 13.7336 36.2639 13.7336 54.9343C13.7336 73.6047 22.9567 88.7401 34.334 88.7401Z" fill="#D9D9D9"/>
<path d="M66.6679 54.9344C66.6679 69.7892 62.9008 83.1428 56.9158 92.7188C50.9131 102.323 42.8766 107.869 34.334 107.869V111.869C44.7534 111.869 53.8839 105.117 60.3077 94.8388C66.7492 84.5325 70.6679 70.4189 70.6679 54.9344H66.6679ZM34.334 2C42.8766 2 50.9131 7.54569 56.9158 17.1499C62.9008 26.7259 66.6679 40.0795 66.6679 54.9344H70.6679C70.6679 39.4498 66.7492 25.3362 60.3077 15.0299C53.8839 4.75178 44.7534 -2 34.334 -2V2ZM2 54.9344C2 40.0795 5.76717 26.7259 11.7522 17.1499C17.7548 7.54569 25.7913 2 34.334 2V-2C23.9145 -2 14.784 4.75178 8.36019 15.0299C1.91875 25.3362 -2 39.4498 -2 54.9344H2ZM34.334 107.869C25.7913 107.869 17.7548 102.323 11.7522 92.7188C5.76717 83.1428 2 69.7892 2 54.9344H-2C-2 70.4189 1.91875 84.5325 8.36019 94.8388C14.784 105.117 23.9145 111.869 34.334 111.869V107.869ZM52.9343 54.9343C52.9343 63.9639 50.7 72.0424 47.1927 77.7979C43.6641 83.5885 39.0594 86.7401 34.334 86.7401V90.7401C40.9858 90.7401 46.6813 86.324 50.6085 79.8794C54.5571 73.3995 56.9343 64.5752 56.9343 54.9343H52.9343ZM34.334 23.1286C39.0594 23.1286 43.6641 26.2802 47.1927 32.0708C50.7 37.8263 52.9343 45.9048 52.9343 54.9343H56.9343C56.9343 45.2935 54.5571 36.4691 50.6085 29.9893C46.6813 23.5446 40.9858 19.1286 34.334 19.1286V23.1286ZM15.7336 54.9343C15.7336 45.9048 17.9679 37.8263 21.4752 32.0708C25.0038 26.2802 29.6085 23.1286 34.334 23.1286V19.1286C27.6821 19.1286 21.9866 23.5446 18.0594 29.9893C14.1108 36.4691 11.7336 45.2935 11.7336 54.9343H15.7336ZM34.334 86.7401C29.6085 86.7401 25.0038 83.5885 21.4752 77.7979C17.9679 72.0424 15.7336 63.9639 15.7336 54.9343H11.7336C11.7336 64.5752 14.1108 73.3995 18.0594 79.8794C21.9866 86.324 27.6821 90.7401 34.334 90.7401V86.7401Z" fill="black" mask="url(#path-7-inside-3_2_31)"/>
<path d="M124.921 5.28214L82.4015 105.643H96.7149L138.392 5.28214H124.921Z" fill="#7B7B7B" stroke="black" stroke-width="2"/>
<path d="M131.259 5.28214L88.7401 105.643H103.053L144.731 5.28214H131.259Z" fill="#D9D9D9" stroke="black" stroke-width="2"/>
<circle cx="96.1351" cy="19.0157" r="12.7336" fill="url(#paint0_linear_2_31)" stroke="black" stroke-width="2"/>
<circle cx="133.11" cy="91.9094" r="12.7336" fill="url(#paint1_linear_2_31)" stroke="black" stroke-width="2"/>
<mask id="path-13-outside-4_2_31" maskUnits="userSpaceOnUse" x="15.6094" y="117.978" width="122" height="68" fill="black">
<rect fill="white" x="15.6094" y="117.978" width="122" height="68"/>
<path d="M22.8389 144H17.6094V120.193H22.8389V144Z"/>
<path d="M42.1299 144H37.4648V130.636L34.7422 144H31.1396L28.0186 130.636V144H23.9346V120.193H30.6582L33.0488 132.545L35.124 120.193H42.1299V144Z"/>
<path d="M48.4053 135.234V144H43.3086V120.193H48.8037C50.984 120.193 52.5999 120.47 53.6514 121.023C54.7139 121.577 55.2451 122.706 55.2451 124.41V131.018C55.2451 132.578 54.8135 133.685 53.9502 134.338C53.0869 134.98 51.2386 135.279 48.4053 135.234ZM50.1484 130.569V124.858C50.1484 124.017 49.5674 123.597 48.4053 123.597V131.831C49.5674 131.831 50.1484 131.41 50.1484 130.569Z"/>
<path d="M56.1416 139.933V124.609C56.1416 121.521 58.1449 119.978 62.1514 119.978C66.1025 119.978 68.0781 121.51 68.0781 124.576V139.899C68.0781 141.283 67.5247 142.351 66.418 143.104C65.3223 143.845 63.889 144.216 62.1182 144.216C58.1338 144.216 56.1416 142.788 56.1416 139.933ZM62.9648 140.182V123.962C62.9648 123.486 62.6826 123.248 62.1182 123.248C61.5316 123.248 61.2383 123.486 61.2383 123.962V140.182C61.2383 140.658 61.5316 140.896 62.1182 140.896C62.6826 140.896 62.9648 140.658 62.9648 140.182Z"/>
<path d="M69.1572 134.471H73.9219V139.933C73.9219 140.475 74.2484 140.746 74.9014 140.746C75.5322 140.746 75.8477 140.475 75.8477 139.933V137.11C75.8477 136.247 75.2721 135.234 74.1211 134.072C71.8965 131.914 70.513 130.464 69.9707 129.723C69.4284 128.981 69.1572 128.168 69.1572 127.282V124.609C69.1572 121.521 71.1715 119.978 75.2002 119.978C78.8083 119.978 80.6123 121.383 80.6123 124.194V128.312H75.8477V123.929C75.8477 123.453 75.5876 123.215 75.0674 123.215C74.4587 123.215 74.1543 123.674 74.1543 124.593L74.2539 126.137C74.2539 127.022 74.8405 128.051 76.0137 129.225C78.194 131.316 79.5775 132.777 80.1641 133.607C80.7617 134.438 81.0605 135.378 81.0605 136.43V139.468C81.0605 142.633 79.0407 144.216 75.001 144.216C71.1051 144.216 69.1572 142.777 69.1572 139.899V134.471Z"/>
<path d="M82.1729 134.471H86.9375V139.933C86.9375 140.475 87.264 140.746 87.917 140.746C88.5479 140.746 88.8633 140.475 88.8633 139.933V137.11C88.8633 136.247 88.2878 135.234 87.1367 134.072C84.9121 131.914 83.5286 130.464 82.9863 129.723C82.444 128.981 82.1729 128.168 82.1729 127.282V124.609C82.1729 121.521 84.1872 119.978 88.2158 119.978C91.8239 119.978 93.6279 121.383 93.6279 124.194V128.312H88.8633V123.929C88.8633 123.453 88.6032 123.215 88.083 123.215C87.4743 123.215 87.1699 123.674 87.1699 124.593L87.2695 126.137C87.2695 127.022 87.8561 128.051 89.0293 129.225C91.2096 131.316 92.5931 132.777 93.1797 133.607C93.7773 134.438 94.0762 135.378 94.0762 136.43V139.468C94.0762 142.633 92.0563 144.216 88.0166 144.216C84.1208 144.216 82.1729 142.777 82.1729 139.899V134.471Z"/>
<path d="M100.335 144H95.1055V120.193H100.335V144Z"/>
<path d="M101.381 144V120.193H107.54C109.012 120.193 110.29 120.531 111.375 121.206C112.46 121.87 113.002 122.938 113.002 124.41V127.714C113.002 129.385 111.984 130.564 109.947 131.25C112.094 131.781 113.168 132.927 113.168 134.687V139.302C113.168 140.873 112.653 142.052 111.624 142.838C110.606 143.613 109.388 144 107.972 144H101.381ZM108.071 128.561V124.51C108.071 123.68 107.584 123.265 106.61 123.265V129.822C107.584 129.822 108.071 129.402 108.071 128.561ZM108.071 139.684V133.657C108.071 132.827 107.584 132.412 106.61 132.412V140.945C107.584 140.945 108.071 140.525 108.071 139.684Z"/>
<path d="M124.158 144H114.347V120.193H119.576V140.945H124.158V144Z"/>
<path d="M135.215 144H124.988V120.193H135.148V123.265H130.218V129.689H134.667V132.578H130.218V140.945H135.215V144Z"/>
<path d="M58.2998 183.254H56.2246C54.0885 183.254 53.0205 182.241 53.0205 180.216C48.5824 180.216 46.3633 178.788 46.3633 175.933V160.609C46.3633 157.521 48.3665 155.978 52.373 155.978C56.3242 155.978 58.2998 157.51 58.2998 160.576V175.899C58.2998 177.56 57.4255 178.81 55.6768 179.651C55.6768 180.028 55.8096 180.26 56.0752 180.349C56.3408 180.448 57.0824 180.498 58.2998 180.498V183.254ZM53.2031 176.182V159.962C53.2031 159.486 52.9154 159.248 52.3398 159.248C51.7533 159.248 51.46 159.486 51.46 159.962V176.182C51.46 176.658 51.7533 176.896 52.3398 176.896C52.9154 176.896 53.2031 176.658 53.2031 176.182Z"/>
<path d="M59.3789 156.193H64.6084V176.182C64.6084 176.658 64.9017 176.896 65.4883 176.896C66.0638 176.896 66.3516 176.658 66.3516 176.182V156.193H71.5811V175.899C71.5811 177.272 71.0111 178.334 69.8711 179.087C68.7311 179.84 67.2702 180.216 65.4883 180.216C63.8392 180.216 62.4059 179.878 61.1885 179.203C59.9821 178.528 59.3789 177.438 59.3789 175.933V156.193Z"/>
<path d="M82.9531 180H72.7266V156.193H82.8867V159.265H77.9561V165.689H82.4053V168.578H77.9561V176.945H82.9531V180Z"/>
<path d="M94.043 180H83.8164V156.193H93.9766V159.265H89.0459V165.689H93.4951V168.578H89.0459V176.945H94.043V180Z"/>
<path d="M106.461 180H94.6572V176.979L100.418 159.298H95.0059V156.193H106.062V159.331L100.335 176.945H106.461V180Z"/>
</mask>
<path d="M22.8389 144H17.6094V120.193H22.8389V144Z" fill="#E03C3C"/>
<path d="M42.1299 144H37.4648V130.636L34.7422 144H31.1396L28.0186 130.636V144H23.9346V120.193H30.6582L33.0488 132.545L35.124 120.193H42.1299V144Z" fill="#E03C3C"/>
<path d="M48.4053 135.234V144H43.3086V120.193H48.8037C50.984 120.193 52.5999 120.47 53.6514 121.023C54.7139 121.577 55.2451 122.706 55.2451 124.41V131.018C55.2451 132.578 54.8135 133.685 53.9502 134.338C53.0869 134.98 51.2386 135.279 48.4053 135.234ZM50.1484 130.569V124.858C50.1484 124.017 49.5674 123.597 48.4053 123.597V131.831C49.5674 131.831 50.1484 131.41 50.1484 130.569Z" fill="#E03C3C"/>
<path d="M56.1416 139.933V124.609C56.1416 121.521 58.1449 119.978 62.1514 119.978C66.1025 119.978 68.0781 121.51 68.0781 124.576V139.899C68.0781 141.283 67.5247 142.351 66.418 143.104C65.3223 143.845 63.889 144.216 62.1182 144.216C58.1338 144.216 56.1416 142.788 56.1416 139.933ZM62.9648 140.182V123.962C62.9648 123.486 62.6826 123.248 62.1182 123.248C61.5316 123.248 61.2383 123.486 61.2383 123.962V140.182C61.2383 140.658 61.5316 140.896 62.1182 140.896C62.6826 140.896 62.9648 140.658 62.9648 140.182Z" fill="#E03C3C"/>
<path d="M69.1572 134.471H73.9219V139.933C73.9219 140.475 74.2484 140.746 74.9014 140.746C75.5322 140.746 75.8477 140.475 75.8477 139.933V137.11C75.8477 136.247 75.2721 135.234 74.1211 134.072C71.8965 131.914 70.513 130.464 69.9707 129.723C69.4284 128.981 69.1572 128.168 69.1572 127.282V124.609C69.1572 121.521 71.1715 119.978 75.2002 119.978C78.8083 119.978 80.6123 121.383 80.6123 124.194V128.312H75.8477V123.929C75.8477 123.453 75.5876 123.215 75.0674 123.215C74.4587 123.215 74.1543 123.674 74.1543 124.593L74.2539 126.137C74.2539 127.022 74.8405 128.051 76.0137 129.225C78.194 131.316 79.5775 132.777 80.1641 133.607C80.7617 134.438 81.0605 135.378 81.0605 136.43V139.468C81.0605 142.633 79.0407 144.216 75.001 144.216C71.1051 144.216 69.1572 142.777 69.1572 139.899V134.471Z" fill="#E03C3C"/>
<path d="M82.1729 134.471H86.9375V139.933C86.9375 140.475 87.264 140.746 87.917 140.746C88.5479 140.746 88.8633 140.475 88.8633 139.933V137.11C88.8633 136.247 88.2878 135.234 87.1367 134.072C84.9121 131.914 83.5286 130.464 82.9863 129.723C82.444 128.981 82.1729 128.168 82.1729 127.282V124.609C82.1729 121.521 84.1872 119.978 88.2158 119.978C91.8239 119.978 93.6279 121.383 93.6279 124.194V128.312H88.8633V123.929C88.8633 123.453 88.6032 123.215 88.083 123.215C87.4743 123.215 87.1699 123.674 87.1699 124.593L87.2695 126.137C87.2695 127.022 87.8561 128.051 89.0293 129.225C91.2096 131.316 92.5931 132.777 93.1797 133.607C93.7773 134.438 94.0762 135.378 94.0762 136.43V139.468C94.0762 142.633 92.0563 144.216 88.0166 144.216C84.1208 144.216 82.1729 142.777 82.1729 139.899V134.471Z" fill="#E03C3C"/>
<path d="M100.335 144H95.1055V120.193H100.335V144Z" fill="#E03C3C"/>
<path d="M101.381 144V120.193H107.54C109.012 120.193 110.29 120.531 111.375 121.206C112.46 121.87 113.002 122.938 113.002 124.41V127.714C113.002 129.385 111.984 130.564 109.947 131.25C112.094 131.781 113.168 132.927 113.168 134.687V139.302C113.168 140.873 112.653 142.052 111.624 142.838C110.606 143.613 109.388 144 107.972 144H101.381ZM108.071 128.561V124.51C108.071 123.68 107.584 123.265 106.61 123.265V129.822C107.584 129.822 108.071 129.402 108.071 128.561ZM108.071 139.684V133.657C108.071 132.827 107.584 132.412 106.61 132.412V140.945C107.584 140.945 108.071 140.525 108.071 139.684Z" fill="#E03C3C"/>
<path d="M124.158 144H114.347V120.193H119.576V140.945H124.158V144Z" fill="#E03C3C"/>
<path d="M135.215 144H124.988V120.193H135.148V123.265H130.218V129.689H134.667V132.578H130.218V140.945H135.215V144Z" fill="#E03C3C"/>
<path d="M58.2998 183.254H56.2246C54.0885 183.254 53.0205 182.241 53.0205 180.216C48.5824 180.216 46.3633 178.788 46.3633 175.933V160.609C46.3633 157.521 48.3665 155.978 52.373 155.978C56.3242 155.978 58.2998 157.51 58.2998 160.576V175.899C58.2998 177.56 57.4255 178.81 55.6768 179.651C55.6768 180.028 55.8096 180.26 56.0752 180.349C56.3408 180.448 57.0824 180.498 58.2998 180.498V183.254ZM53.2031 176.182V159.962C53.2031 159.486 52.9154 159.248 52.3398 159.248C51.7533 159.248 51.46 159.486 51.46 159.962V176.182C51.46 176.658 51.7533 176.896 52.3398 176.896C52.9154 176.896 53.2031 176.658 53.2031 176.182Z" fill="white" fill-opacity="0.87"/>
<path d="M59.3789 156.193H64.6084V176.182C64.6084 176.658 64.9017 176.896 65.4883 176.896C66.0638 176.896 66.3516 176.658 66.3516 176.182V156.193H71.5811V175.899C71.5811 177.272 71.0111 178.334 69.8711 179.087C68.7311 179.84 67.2702 180.216 65.4883 180.216C63.8392 180.216 62.4059 179.878 61.1885 179.203C59.9821 178.528 59.3789 177.438 59.3789 175.933V156.193Z" fill="white" fill-opacity="0.87"/>
<path d="M82.9531 180H72.7266V156.193H82.8867V159.265H77.9561V165.689H82.4053V168.578H77.9561V176.945H82.9531V180Z" fill="white" fill-opacity="0.87"/>
<path d="M94.043 180H83.8164V156.193H93.9766V159.265H89.0459V165.689H93.4951V168.578H89.0459V176.945H94.043V180Z" fill="white" fill-opacity="0.87"/>
<path d="M106.461 180H94.6572V176.979L100.418 159.298H95.0059V156.193H106.062V159.331L100.335 176.945H106.461V180Z" fill="white" fill-opacity="0.87"/>
<path d="M22.8389 144H17.6094V120.193H22.8389V144Z" stroke="black" stroke-width="4" mask="url(#path-13-outside-4_2_31)"/>
<path d="M42.1299 144H37.4648V130.636L34.7422 144H31.1396L28.0186 130.636V144H23.9346V120.193H30.6582L33.0488 132.545L35.124 120.193H42.1299V144Z" stroke="black" stroke-width="4" mask="url(#path-13-outside-4_2_31)"/>
<path d="M48.4053 135.234V144H43.3086V120.193H48.8037C50.984 120.193 52.5999 120.47 53.6514 121.023C54.7139 121.577 55.2451 122.706 55.2451 124.41V131.018C55.2451 132.578 54.8135 133.685 53.9502 134.338C53.0869 134.98 51.2386 135.279 48.4053 135.234ZM50.1484 130.569V124.858C50.1484 124.017 49.5674 123.597 48.4053 123.597V131.831C49.5674 131.831 50.1484 131.41 50.1484 130.569Z" stroke="black" stroke-width="4" mask="url(#path-13-outside-4_2_31)"/>
<path d="M56.1416 139.933V124.609C56.1416 121.521 58.1449 119.978 62.1514 119.978C66.1025 119.978 68.0781 121.51 68.0781 124.576V139.899C68.0781 141.283 67.5247 142.351 66.418 143.104C65.3223 143.845 63.889 144.216 62.1182 144.216C58.1338 144.216 56.1416 142.788 56.1416 139.933ZM62.9648 140.182V123.962C62.9648 123.486 62.6826 123.248 62.1182 123.248C61.5316 123.248 61.2383 123.486 61.2383 123.962V140.182C61.2383 140.658 61.5316 140.896 62.1182 140.896C62.6826 140.896 62.9648 140.658 62.9648 140.182Z" stroke="black" stroke-width="4" mask="url(#path-13-outside-4_2_31)"/>
<path d="M69.1572 134.471H73.9219V139.933C73.9219 140.475 74.2484 140.746 74.9014 140.746C75.5322 140.746 75.8477 140.475 75.8477 139.933V137.11C75.8477 136.247 75.2721 135.234 74.1211 134.072C71.8965 131.914 70.513 130.464 69.9707 129.723C69.4284 128.981 69.1572 128.168 69.1572 127.282V124.609C69.1572 121.521 71.1715 119.978 75.2002 119.978C78.8083 119.978 80.6123 121.383 80.6123 124.194V128.312H75.8477V123.929C75.8477 123.453 75.5876 123.215 75.0674 123.215C74.4587 123.215 74.1543 123.674 74.1543 124.593L74.2539 126.137C74.2539 127.022 74.8405 128.051 76.0137 129.225C78.194 131.316 79.5775 132.777 80.1641 133.607C80.7617 134.438 81.0605 135.378 81.0605 136.43V139.468C81.0605 142.633 79.0407 144.216 75.001 144.216C71.1051 144.216 69.1572 142.777 69.1572 139.899V134.471Z" stroke="black" stroke-width="4" mask="url(#path-13-outside-4_2_31)"/>
<path d="M82.1729 134.471H86.9375V139.933C86.9375 140.475 87.264 140.746 87.917 140.746C88.5479 140.746 88.8633 140.475 88.8633 139.933V137.11C88.8633 136.247 88.2878 135.234 87.1367 134.072C84.9121 131.914 83.5286 130.464 82.9863 129.723C82.444 128.981 82.1729 128.168 82.1729 127.282V124.609C82.1729 121.521 84.1872 119.978 88.2158 119.978C91.8239 119.978 93.6279 121.383 93.6279 124.194V128.312H88.8633V123.929C88.8633 123.453 88.6032 123.215 88.083 123.215C87.4743 123.215 87.1699 123.674 87.1699 124.593L87.2695 126.137C87.2695 127.022 87.8561 128.051 89.0293 129.225C91.2096 131.316 92.5931 132.777 93.1797 133.607C93.7773 134.438 94.0762 135.378 94.0762 136.43V139.468C94.0762 142.633 92.0563 144.216 88.0166 144.216C84.1208 144.216 82.1729 142.777 82.1729 139.899V134.471Z" stroke="black" stroke-width="4" mask="url(#path-13-outside-4_2_31)"/>
<path d="M100.335 144H95.1055V120.193H100.335V144Z" stroke="black" stroke-width="4" mask="url(#path-13-outside-4_2_31)"/>
<path d="M101.381 144V120.193H107.54C109.012 120.193 110.29 120.531 111.375 121.206C112.46 121.87 113.002 122.938 113.002 124.41V127.714C113.002 129.385 111.984 130.564 109.947 131.25C112.094 131.781 113.168 132.927 113.168 134.687V139.302C113.168 140.873 112.653 142.052 111.624 142.838C110.606 143.613 109.388 144 107.972 144H101.381ZM108.071 128.561V124.51C108.071 123.68 107.584 123.265 106.61 123.265V129.822C107.584 129.822 108.071 129.402 108.071 128.561ZM108.071 139.684V133.657C108.071 132.827 107.584 132.412 106.61 132.412V140.945C107.584 140.945 108.071 140.525 108.071 139.684Z" stroke="black" stroke-width="4" mask="url(#path-13-outside-4_2_31)"/>
<path d="M124.158 144H114.347V120.193H119.576V140.945H124.158V144Z" stroke="black" stroke-width="4" mask="url(#path-13-outside-4_2_31)"/>
<path d="M135.215 144H124.988V120.193H135.148V123.265H130.218V129.689H134.667V132.578H130.218V140.945H135.215V144Z" stroke="black" stroke-width="4" mask="url(#path-13-outside-4_2_31)"/>
<path d="M58.2998 183.254H56.2246C54.0885 183.254 53.0205 182.241 53.0205 180.216C48.5824 180.216 46.3633 178.788 46.3633 175.933V160.609C46.3633 157.521 48.3665 155.978 52.373 155.978C56.3242 155.978 58.2998 157.51 58.2998 160.576V175.899C58.2998 177.56 57.4255 178.81 55.6768 179.651C55.6768 180.028 55.8096 180.26 56.0752 180.349C56.3408 180.448 57.0824 180.498 58.2998 180.498V183.254ZM53.2031 176.182V159.962C53.2031 159.486 52.9154 159.248 52.3398 159.248C51.7533 159.248 51.46 159.486 51.46 159.962V176.182C51.46 176.658 51.7533 176.896 52.3398 176.896C52.9154 176.896 53.2031 176.658 53.2031 176.182Z" stroke="black" stroke-width="4" mask="url(#path-13-outside-4_2_31)"/>
<path d="M59.3789 156.193H64.6084V176.182C64.6084 176.658 64.9017 176.896 65.4883 176.896C66.0638 176.896 66.3516 176.658 66.3516 176.182V156.193H71.5811V175.899C71.5811 177.272 71.0111 178.334 69.8711 179.087C68.7311 179.84 67.2702 180.216 65.4883 180.216C63.8392 180.216 62.4059 179.878 61.1885 179.203C59.9821 178.528 59.3789 177.438 59.3789 175.933V156.193Z" stroke="black" stroke-width="4" mask="url(#path-13-outside-4_2_31)"/>
<path d="M82.9531 180H72.7266V156.193H82.8867V159.265H77.9561V165.689H82.4053V168.578H77.9561V176.945H82.9531V180Z" stroke="black" stroke-width="4" mask="url(#path-13-outside-4_2_31)"/>
<path d="M94.043 180H83.8164V156.193H93.9766V159.265H89.0459V165.689H93.4951V168.578H89.0459V176.945H94.043V180Z" stroke="black" stroke-width="4" mask="url(#path-13-outside-4_2_31)"/>
<path d="M106.461 180H94.6572V176.979L100.418 159.298H95.0059V156.193H106.062V159.331L100.335 176.945H106.461V180Z" stroke="black" stroke-width="4" mask="url(#path-13-outside-4_2_31)"/>
<defs>
<linearGradient id="paint0_linear_2_31" x1="96.1351" y1="19.0157" x2="82.4015" y2="27.8445" gradientUnits="userSpaceOnUse">
<stop stop-color="#D9D9D9"/>
<stop offset="1" stop-color="#D9D9D9" stop-opacity="0"/>
</linearGradient>
<linearGradient id="paint1_linear_2_31" x1="133.11" y1="91.9094" x2="119.377" y2="100.738" gradientUnits="userSpaceOnUse">
<stop stop-color="#D9D9D9"/>
<stop offset="1" stop-color="#D9D9D9" stop-opacity="0"/>
</linearGradient>
</defs>
</svg>
