<svg width="67" height="103" viewBox="0 0 67 103" fill="none" xmlns="http://www.w3.org/2000/svg">
<g clip-path="url(#clip0_6_23)">
<path d="M44.9208 1.28214L2.40149 101.643H16.7149L58.3923 1.28214H44.9208Z" fill="#7B7B7B" stroke="black" stroke-width="2"/>
<path d="M51.2594 1.28214L8.74005 101.643H23.0535L64.7308 1.28214H51.2594Z" fill="#D9D9D9" stroke="black" stroke-width="2"/>
<path d="M16.1351 27.7493C23.1677 27.7493 28.8687 22.0483 28.8687 15.0157C28.8687 7.98313 23.1677 2.2821 16.1351 2.2821C9.10252 2.2821 3.40149 7.98313 3.40149 15.0157C3.40149 22.0483 9.10252 27.7493 16.1351 27.7493Z" fill="url(#paint0_linear_6_23)" stroke="black" stroke-width="2"/>
<path d="M53.1102 100.643C60.1428 100.643 65.8438 94.942 65.8438 87.9094C65.8438 80.8768 60.1428 75.1758 53.1102 75.1758C46.0776 75.1758 40.3766 80.8768 40.3766 87.9094C40.3766 94.942 46.0776 100.643 53.1102 100.643Z" fill="url(#paint1_linear_6_23)" stroke="black" stroke-width="2"/>
</g>
<defs>
<linearGradient id="paint0_linear_6_23" x1="16.1351" y1="15.0157" x2="2.40148" y2="23.8445" gradientUnits="userSpaceOnUse">
<stop stop-color="#D9D9D9"/>
<stop offset="1" stop-color="#D9D9D9" stop-opacity="0"/>
</linearGradient>
<linearGradient id="paint1_linear_6_23" x1="53.1102" y1="87.9094" x2="39.3766" y2="96.7381" gradientUnits="userSpaceOnUse">
<stop stop-color="#D9D9D9"/>
<stop offset="1" stop-color="#D9D9D9" stop-opacity="0"/>
</linearGradient>
<clipPath id="clip0_6_23">
<rect width="67" height="103" fill="white"/>
</clipPath>
</defs>
</svg>
